<svg aria-hidden="true" style="position: absolute; width: 0; height: 0; overflow: hidden;" version="1.1" xmlns="http://www.w3.org/2000/svg" xmlns:xlink="http://www.w3.org/1999/xlink">
<defs>
<symbol id="icon-burger-menu" viewBox="0 0 32 32">
<path d="M4.592 9.334c-0.326 0-0.592-0.598-0.592-1.334s0.266-1.334 0.592-1.334h9.482c0.327 0 0.592 0.598 0.592 1.334s-0.265 1.334-0.592 1.334h-9.482zM5.334 17.334c-0.737 0-1.334-0.597-1.334-1.334s0.597-1.334 1.334-1.334h21.333c0.737 0 1.334 0.597 1.334 1.334s-0.597 1.334-1.334 1.334h-21.333zM17.143 24c0 0.631 0.256 1.142 0.571 1.142h9.142c0.316 0 0.572-0.512 0.572-1.142 0-0.632-0.256-1.143-0.572-1.143h-9.142c-0.316 0-0.571 0.512-0.571 1.143z"></path>
</symbol>
<symbol id="icon-arrow" viewBox="0 0 48 32">
<path fill="#fefefe" style="fill: var(--color1, #fefefe)" d="M47.584 14.848l-14.86-14.54c-0.251-0.192-0.568-0.308-0.913-0.308-0.41 0-0.781 0.163-1.053 0.428l0-0c-0.268 0.263-0.433 0.628-0.433 1.032 0 0.339 0.116 0.65 0.312 0.897l-0.002-0.003 12.316 12.070h-41.46c-0.001 0-0.002 0-0.003 0-0.409 0-0.78 0.163-1.051 0.428l0-0c-0.267 0.262-0.433 0.627-0.433 1.031s0.166 0.769 0.433 1.031l0 0c0.28 0.274 0.658 0.428 1.052 0.428h41.44l-12.294 12.048c-0.324 0.25-0.54 0.627-0.572 1.055l-0 0.005c-0.002 0.028-0.003 0.061-0.003 0.095 0 0.403 0.167 0.767 0.435 1.027l0 0c0.269 0.265 0.639 0.429 1.047 0.429 0.035 0 0.069-0.001 0.103-0.004l-0.005 0c0.438-0.028 0.822-0.24 1.080-0.557l0.002-0.003 14.86-14.566c0.256-0.26 0.414-0.618 0.414-1.012s-0.158-0.752-0.414-1.012l0 0z"></path>
</symbol>
<symbol id="icon-smart-car" viewBox="0 0 32 32">
<path d="M24.946 12.654c-0.144-0.001-0.282-0.030-0.407-0.083l0.007 0.003c-0.357-0.162-0.6-0.515-0.6-0.925 0-0.143 0.029-0.278 0.082-0.401l-0.003 0.007c0.254-0.574 0.107-1.414-0.36-2.107-0.466-0.706-1.173-1.186-1.813-1.146-0.007 0-0.015 0-0.023 0-0.546 0-0.988-0.441-0.991-0.986v-0c0-0.56 0.44-1 0.986-1.014 1.374-0.026 2.667 0.76 3.507 2.026 0.853 1.28 1.053 2.814 0.533 4.014-0.153 0.363-0.507 0.614-0.919 0.614-0 0-0.001 0-0.002 0h0z"></path>
<path d="M29.094 13.974c-0.095-0-0.187-0.015-0.274-0.042l0.007 0.002c-0.424-0.119-0.73-0.503-0.73-0.958 0-0.096 0.014-0.189 0.039-0.277l-0.002 0.007c0.506-1.813 0.080-3.973-1.134-5.786s-3.054-3.026-4.934-3.254c-0.495-0.061-0.874-0.479-0.874-0.985 0-0.043 0.003-0.085 0.008-0.126l-0 0.005c0.066-0.546 0.574-0.946 1.106-0.866 2.44 0.293 4.814 1.84 6.347 4.133 1.533 2.294 2.053 5.067 1.4 7.44-0.131 0.413-0.511 0.707-0.96 0.707-0 0-0 0-0 0h0zM22.826 15.706c0 0.4-0.333 0.734-0.733 0.734h-17.52c-0.404-0.003-0.731-0.33-0.734-0.733v-0c0-0.4 0.334-0.733 0.734-0.733h0.986l0.374-1.76c0.346-1.707 1.080-3.267 3.986-3.267h6.84c2.906 0 3.626 1.574 3.986 3.267l0.374 1.76h0.986c0.387 0 0.72 0.333 0.72 0.733zM23.24 21.214c-0.147-1.6-0.574-3.32-3.694-3.32h-12.426c-3.12 0-3.546 1.72-3.694 3.32l-0.546 5.933c-0.007 0.072-0.011 0.157-0.011 0.242 0 0.693 0.262 1.324 0.693 1.801l-0.002-0.002c0.52 0.56 1.24 0.88 2.026 0.88h1.827c1.573 0 1.88-0.906 2.080-1.493l0.2-0.587c0.226-0.666 0.28-0.84 1.16-0.84h4.986c0.88 0 0.906 0.094 1.16 0.84l0.2 0.587c0.2 0.6 0.493 1.493 2.080 1.493h1.826c0.774 0 1.507-0.32 2.026-0.88 0.507-0.56 0.747-1.293 0.681-2.040l-0.574-5.933zM10.414 23.24h-2.92c-0.404-0.003-0.731-0.33-0.734-0.733v-0c0-0.4 0.334-0.733 0.734-0.733h2.92c0.4 0 0.733 0.333 0.733 0.733s-0.333 0.734-0.733 0.734zM19.173 23.24h-2.919c-0.404-0.003-0.73-0.33-0.734-0.733v-0c0-0.4 0.333-0.733 0.734-0.733h2.919c0.4 0 0.734 0.333 0.734 0.733s-0.333 0.734-0.734 0.734z"></path>
</symbol>
<symbol id="icon-ship" viewBox="0 0 32 32">
<path d="M28.84 19.547l-0.547 2.48c-0.947 4.267-4.293 7.307-9.12 7.307h-6.347c-4.827 0-8.173-3.040-9.12-7.307l-0.547-2.48c-0.267-1.213 0.453-2.587 1.613-3.053l9.24-3.707c0.64-0.253 1.32-0.387 1.987-0.387s1.347 0.133 1.987 0.387l9.24 3.707c1.16 0.467 1.88 1.84 1.613 3.053z"></path>
<path d="M25.333 10.667v1.92c0 0.467-0.48 0.8-0.92 0.613l-5.693-2.28c-0.803-0.322-1.735-0.508-2.71-0.508-0.988 0-1.931 0.192-2.794 0.54l0.050-0.018-5.68 2.28c-0.075 0.032-0.163 0.051-0.255 0.051-0.367 0-0.665-0.297-0.665-0.664v-1.933c0-2.2 1.8-4 4-4h10.667c2.2 0 4 1.8 4 4zM19.333 6.667h-6.667v-2.667c0-0.733 0.6-1.333 1.333-1.333h4c0.733 0 1.333 0.6 1.333 1.333v2.667z"></path>
</symbol>
<symbol id="icon-driving" viewBox="0 0 32 32">
<path d="M16 25c-0.547 0-1-0.453-1-1v-1.333c0-0.547 0.453-1 1-1s1 0.453 1 1v1.333c0 0.547-0.453 1-1 1zM16 30.333c-0.547 0-1-0.453-1-1v-1.333c0-0.547 0.453-1 1-1s1 0.453 1 1v1.333c0 0.547-0.453 1-1 1zM2.667 30.333c-0.080 0-0.16-0.013-0.24-0.027-0.533-0.133-0.867-0.68-0.733-1.213l1.333-5.333c0.111-0.441 0.505-0.762 0.973-0.762 0.554 0 1.002 0.449 1.002 1.003 0 0.085-0.011 0.168-0.031 0.247l0.002-0.007-1.333 5.333c-0.12 0.453-0.52 0.76-0.973 0.76zM29.004 30.004c-0.453 0-0.853-0.307-0.973-0.76l-1.333-5.333c-0.133-0.533 0.187-1.080 0.733-1.213 0.533-0.133 1.080 0.187 1.213 0.733l1.333 5.333c0.133 0.533-0.187 1.080-0.733 1.213-0.080 0.013-0.16 0.027-0.24 0.027zM25.52 7.067c0 0.4-0.333 0.72-0.72 0.72h-17.427c-0.4 0-0.72-0.333-0.72-0.72 0-0.4 0.333-0.72 0.72-0.72h0.987l0.373-1.747c0.347-1.707 1.067-3.267 3.947-3.267h6.787c2.88 0 3.613 1.56 3.96 3.253l0.373 1.747h0.987c0.4 0 0.733 0.333 0.733 0.733zM25.933 12.533c-0.147-1.6-0.573-3.293-3.68-3.293h-12.347c-3.107 0-3.52 1.707-3.68 3.293l-0.547 5.893c-0.067 0.733 0.173 1.467 0.68 2.027 0.52 0.56 1.24 0.88 2.013 0.88h1.813c1.573 0 1.867-0.893 2.067-1.493l0.2-0.587c0.227-0.667 0.28-0.827 1.147-0.827h4.96c0.867 0 0.893 0.093 1.147 0.827l0.2 0.587c0.187 0.6 0.493 1.493 2.053 1.493h1.813c0.76 0 1.493-0.32 2.013-0.88 0.507-0.547 0.747-1.293 0.68-2.027l-0.533-5.893zM13.173 14.56h-2.893c-0.4 0-0.72-0.333-0.72-0.72s0.333-0.72 0.72-0.72h2.907c0.4 0 0.72 0.333 0.72 0.72s-0.333 0.72-0.733 0.72zM21.88 14.56h-2.907c-0.4 0-0.72-0.333-0.72-0.72s0.333-0.72 0.72-0.72h2.907c0.4 0 0.72 0.333 0.72 0.72s-0.32 0.72-0.72 0.72z"></path>
</symbol>
<symbol id="icon-bus" viewBox="0 0 32 32">
<path d="M5.333 18v7.2c0 2.267 1.853 4.133 4.133 4.133h13.067c2.267 0 4.133-1.853 4.133-4.133v-7.2c0-0.373-0.293-0.667-0.667-0.667h-20c-0.373 0-0.667 0.293-0.667 0.667zM11.84 24.507c-0.307 0.32-0.733 0.493-1.173 0.493-0.107 0-0.213-0.013-0.32-0.027-0.107-0.027-0.213-0.053-0.32-0.107-0.108-0.046-0.2-0.095-0.287-0.151l0.007 0.004c-0.093-0.067-0.187-0.133-0.253-0.213-0.32-0.307-0.493-0.733-0.493-1.173s0.173-0.867 0.493-1.173c0.067-0.080 0.16-0.147 0.253-0.213 0.080-0.053 0.187-0.107 0.28-0.147 0.107-0.053 0.213-0.080 0.32-0.107 0.533-0.107 1.107 0.080 1.493 0.467 0.32 0.307 0.493 0.733 0.493 1.173s-0.173 0.867-0.493 1.173zM22.507 24.507c-0.067 0.080-0.16 0.147-0.253 0.213-0.080 0.053-0.187 0.107-0.28 0.147-0.107 0.053-0.213 0.080-0.307 0.107-0.12 0.013-0.227 0.027-0.333 0.027s-0.213-0.013-0.32-0.027c-0.107-0.027-0.213-0.053-0.32-0.107-0.108-0.046-0.2-0.095-0.287-0.151l0.007 0.004c-0.093-0.067-0.187-0.133-0.253-0.213-0.32-0.307-0.493-0.733-0.493-1.173s0.173-0.867 0.493-1.173c0.067-0.080 0.16-0.147 0.253-0.213 0.080-0.053 0.187-0.107 0.28-0.147 0.107-0.053 0.213-0.080 0.32-0.107 0.213-0.040 0.427-0.040 0.653 0 0.093 0.027 0.2 0.053 0.307 0.107 0.093 0.040 0.2 0.093 0.28 0.147 0.093 0.067 0.187 0.133 0.253 0.213 0.32 0.307 0.493 0.733 0.493 1.173s-0.173 0.867-0.493 1.173zM22.533 2.667h-13.067c-2.28 0-4.133 1.853-4.133 4.133v3.2c0 0.373 0.293 0.667 0.667 0.667h20c0.373 0 0.667-0.293 0.667-0.667v-3.2c0-2.28-1.853-4.133-4.133-4.133zM19.333 7.667h-6.667c-0.547 0-1-0.453-1-1s0.453-1 1-1h6.667c0.547 0 1 0.453 1 1s-0.453 1-1 1zM26 16h-20c-0.373 0-0.667-0.293-0.667-0.667v-2.667c0-0.373 0.293-0.667 0.667-0.667h20c0.373 0 0.667 0.293 0.667 0.667v2.667c0 0.373-0.293 0.667-0.667 0.667z"></path>
</symbol>
</defs>
</svg>
