<svg aria-hidden="true" style="position: absolute; width: 0; height: 0; overflow: hidden;" version="1.1" xmlns="http://www.w3.org/2000/svg" xmlns:xlink="http://www.w3.org/1999/xlink">
<defs>
<symbol id="icon-burger-menu" viewBox="0 0 32 32">
<path d="M4.592 9.334c-0.326 0-0.592-0.598-0.592-1.334s0.266-1.334 0.592-1.334h9.482c0.327 0 0.592 0.598 0.592 1.334s-0.265 1.334-0.592 1.334h-9.482zM5.334 17.334c-0.737 0-1.334-0.597-1.334-1.334s0.597-1.334 1.334-1.334h21.333c0.737 0 1.334 0.597 1.334 1.334s-0.597 1.334-1.334 1.334h-21.333zM17.143 24c0 0.631 0.256 1.142 0.571 1.142h9.142c0.316 0 0.572-0.512 0.572-1.142 0-0.632-0.256-1.143-0.572-1.143h-9.142c-0.316 0-0.571 0.512-0.571 1.143z"></path>
</symbol>
<symbol id="icon-arrow" viewBox="0 0 48 32">
<path d="M47.584 14.848l-14.86-14.54c-0.251-0.192-0.568-0.308-0.913-0.308-0.41 0-0.781 0.163-1.053 0.428l0-0c-0.268 0.263-0.433 0.628-0.433 1.032 0 0.339 0.116 0.65 0.312 0.897l-0.002-0.003 12.316 12.070h-41.46c-0.001 0-0.002 0-0.003 0-0.409 0-0.78 0.163-1.051 0.428l0-0c-0.267 0.262-0.433 0.627-0.433 1.031s0.166 0.769 0.433 1.031l0 0c0.28 0.274 0.658 0.428 1.052 0.428h41.44l-12.294 12.048c-0.324 0.25-0.54 0.627-0.572 1.055l-0 0.005c-0.002 0.028-0.003 0.061-0.003 0.095 0 0.403 0.167 0.767 0.435 1.027l0 0c0.269 0.265 0.639 0.429 1.047 0.429 0.035 0 0.069-0.001 0.103-0.004l-0.005 0c0.438-0.028 0.822-0.24 1.080-0.557l0.002-0.003 14.86-14.566c0.256-0.26 0.414-0.618 0.414-1.012s-0.158-0.752-0.414-1.012l0 0z"></path>
</symbol>
<symbol id="icon-smart-car" viewBox="0 0 32 32">
<path d="M24.946 12.654c-0.144-0.001-0.282-0.030-0.407-0.083l0.007 0.003c-0.357-0.162-0.6-0.515-0.6-0.925 0-0.143 0.029-0.278 0.082-0.401l-0.003 0.007c0.254-0.574 0.107-1.414-0.36-2.107-0.466-0.706-1.173-1.186-1.813-1.146-0.007 0-0.015 0-0.023 0-0.546 0-0.988-0.441-0.991-0.986v-0c0-0.56 0.44-1 0.986-1.014 1.374-0.026 2.667 0.76 3.507 2.026 0.853 1.28 1.053 2.814 0.533 4.014-0.153 0.363-0.507 0.614-0.919 0.614-0 0-0.001 0-0.002 0h0z"></path>
<path d="M29.094 13.974c-0.095-0-0.187-0.015-0.274-0.042l0.007 0.002c-0.424-0.119-0.73-0.503-0.73-0.958 0-0.096 0.014-0.189 0.039-0.277l-0.002 0.007c0.506-1.813 0.080-3.973-1.134-5.786s-3.054-3.026-4.934-3.254c-0.495-0.061-0.874-0.479-0.874-0.985 0-0.043 0.003-0.085 0.008-0.126l-0 0.005c0.066-0.546 0.574-0.946 1.106-0.866 2.44 0.293 4.814 1.84 6.347 4.133 1.533 2.294 2.053 5.067 1.4 7.44-0.131 0.413-0.511 0.707-0.96 0.707-0 0-0 0-0 0h0zM22.826 15.706c0 0.4-0.333 0.734-0.733 0.734h-17.52c-0.404-0.003-0.731-0.33-0.734-0.733v-0c0-0.4 0.334-0.733 0.734-0.733h0.986l0.374-1.76c0.346-1.707 1.080-3.267 3.986-3.267h6.84c2.906 0 3.626 1.574 3.986 3.267l0.374 1.76h0.986c0.387 0 0.72 0.333 0.72 0.733zM23.24 21.214c-0.147-1.6-0.574-3.32-3.694-3.32h-12.426c-3.12 0-3.546 1.72-3.694 3.32l-0.546 5.933c-0.007 0.072-0.011 0.157-0.011 0.242 0 0.693 0.262 1.324 0.693 1.801l-0.002-0.002c0.52 0.56 1.24 0.88 2.026 0.88h1.827c1.573 0 1.88-0.906 2.080-1.493l0.2-0.587c0.226-0.666 0.28-0.84 1.16-0.84h4.986c0.88 0 0.906 0.094 1.16 0.84l0.2 0.587c0.2 0.6 0.493 1.493 2.080 1.493h1.826c0.774 0 1.507-0.32 2.026-0.88 0.507-0.56 0.747-1.293 0.681-2.040l-0.574-5.933zM10.414 23.24h-2.92c-0.404-0.003-0.731-0.33-0.734-0.733v-0c0-0.4 0.334-0.733 0.734-0.733h2.92c0.4 0 0.733 0.333 0.733 0.733s-0.333 0.734-0.733 0.734zM19.173 23.24h-2.919c-0.404-0.003-0.73-0.33-0.734-0.733v-0c0-0.4 0.333-0.733 0.734-0.733h2.919c0.4 0 0.734 0.333 0.734 0.733s-0.333 0.734-0.734 0.734z"></path>
</symbol>
<symbol id="icon-ship" viewBox="0 0 32 32">
<path d="M28.84 19.547l-0.547 2.48c-0.947 4.267-4.293 7.307-9.12 7.307h-6.347c-4.827 0-8.173-3.040-9.12-7.307l-0.547-2.48c-0.267-1.213 0.453-2.587 1.613-3.053l9.24-3.707c0.64-0.253 1.32-0.387 1.987-0.387s1.347 0.133 1.987 0.387l9.24 3.707c1.16 0.467 1.88 1.84 1.613 3.053z"></path>
<path d="M25.333 10.667v1.92c0 0.467-0.48 0.8-0.92 0.613l-5.693-2.28c-0.803-0.322-1.735-0.508-2.71-0.508-0.988 0-1.931 0.192-2.794 0.54l0.050-0.018-5.68 2.28c-0.075 0.032-0.163 0.051-0.255 0.051-0.367 0-0.665-0.297-0.665-0.664v-1.933c0-2.2 1.8-4 4-4h10.667c2.2 0 4 1.8 4 4zM19.333 6.667h-6.667v-2.667c0-0.733 0.6-1.333 1.333-1.333h4c0.733 0 1.333 0.6 1.333 1.333v2.667z"></path>
</symbol>
<symbol id="icon-driving" viewBox="0 0 32 32">
<path d="M16 25c-0.547 0-1-0.453-1-1v-1.333c0-0.547 0.453-1 1-1s1 0.453 1 1v1.333c0 0.547-0.453 1-1 1zM16 30.333c-0.547 0-1-0.453-1-1v-1.333c0-0.547 0.453-1 1-1s1 0.453 1 1v1.333c0 0.547-0.453 1-1 1zM2.667 30.333c-0.080 0-0.16-0.013-0.24-0.027-0.533-0.133-0.867-0.68-0.733-1.213l1.333-5.333c0.111-0.441 0.505-0.762 0.973-0.762 0.554 0 1.002 0.449 1.002 1.003 0 0.085-0.011 0.168-0.031 0.247l0.002-0.007-1.333 5.333c-0.12 0.453-0.52 0.76-0.973 0.76zM29.004 30.004c-0.453 0-0.853-0.307-0.973-0.76l-1.333-5.333c-0.133-0.533 0.187-1.080 0.733-1.213 0.533-0.133 1.080 0.187 1.213 0.733l1.333 5.333c0.133 0.533-0.187 1.080-0.733 1.213-0.080 0.013-0.16 0.027-0.24 0.027zM25.52 7.067c0 0.4-0.333 0.72-0.72 0.72h-17.427c-0.4 0-0.72-0.333-0.72-0.72 0-0.4 0.333-0.72 0.72-0.72h0.987l0.373-1.747c0.347-1.707 1.067-3.267 3.947-3.267h6.787c2.88 0 3.613 1.56 3.96 3.253l0.373 1.747h0.987c0.4 0 0.733 0.333 0.733 0.733zM25.933 12.533c-0.147-1.6-0.573-3.293-3.68-3.293h-12.347c-3.107 0-3.52 1.707-3.68 3.293l-0.547 5.893c-0.067 0.733 0.173 1.467 0.68 2.027 0.52 0.56 1.24 0.88 2.013 0.88h1.813c1.573 0 1.867-0.893 2.067-1.493l0.2-0.587c0.227-0.667 0.28-0.827 1.147-0.827h4.96c0.867 0 0.893 0.093 1.147 0.827l0.2 0.587c0.187 0.6 0.493 1.493 2.053 1.493h1.813c0.76 0 1.493-0.32 2.013-0.88 0.507-0.547 0.747-1.293 0.68-2.027l-0.533-5.893zM13.173 14.56h-2.893c-0.4 0-0.72-0.333-0.72-0.72s0.333-0.72 0.72-0.72h2.907c0.4 0 0.72 0.333 0.72 0.72s-0.333 0.72-0.733 0.72zM21.88 14.56h-2.907c-0.4 0-0.72-0.333-0.72-0.72s0.333-0.72 0.72-0.72h2.907c0.4 0 0.72 0.333 0.72 0.72s-0.32 0.72-0.72 0.72z"></path>
</symbol>
<symbol id="icon-bus" viewBox="0 0 32 32">
<path d="M5.333 18v7.2c0 2.267 1.853 4.133 4.133 4.133h13.067c2.267 0 4.133-1.853 4.133-4.133v-7.2c0-0.373-0.293-0.667-0.667-0.667h-20c-0.373 0-0.667 0.293-0.667 0.667zM11.84 24.507c-0.307 0.32-0.733 0.493-1.173 0.493-0.107 0-0.213-0.013-0.32-0.027-0.107-0.027-0.213-0.053-0.32-0.107-0.108-0.046-0.2-0.095-0.287-0.151l0.007 0.004c-0.093-0.067-0.187-0.133-0.253-0.213-0.32-0.307-0.493-0.733-0.493-1.173s0.173-0.867 0.493-1.173c0.067-0.080 0.16-0.147 0.253-0.213 0.080-0.053 0.187-0.107 0.28-0.147 0.107-0.053 0.213-0.080 0.32-0.107 0.533-0.107 1.107 0.080 1.493 0.467 0.32 0.307 0.493 0.733 0.493 1.173s-0.173 0.867-0.493 1.173zM22.507 24.507c-0.067 0.080-0.16 0.147-0.253 0.213-0.080 0.053-0.187 0.107-0.28 0.147-0.107 0.053-0.213 0.080-0.307 0.107-0.12 0.013-0.227 0.027-0.333 0.027s-0.213-0.013-0.32-0.027c-0.107-0.027-0.213-0.053-0.32-0.107-0.108-0.046-0.2-0.095-0.287-0.151l0.007 0.004c-0.093-0.067-0.187-0.133-0.253-0.213-0.32-0.307-0.493-0.733-0.493-1.173s0.173-0.867 0.493-1.173c0.067-0.080 0.16-0.147 0.253-0.213 0.080-0.053 0.187-0.107 0.28-0.147 0.107-0.053 0.213-0.080 0.32-0.107 0.213-0.040 0.427-0.040 0.653 0 0.093 0.027 0.2 0.053 0.307 0.107 0.093 0.040 0.2 0.093 0.28 0.147 0.093 0.067 0.187 0.133 0.253 0.213 0.32 0.307 0.493 0.733 0.493 1.173s-0.173 0.867-0.493 1.173zM22.533 2.667h-13.067c-2.28 0-4.133 1.853-4.133 4.133v3.2c0 0.373 0.293 0.667 0.667 0.667h20c0.373 0 0.667-0.293 0.667-0.667v-3.2c0-2.28-1.853-4.133-4.133-4.133zM19.333 7.667h-6.667c-0.547 0-1-0.453-1-1s0.453-1 1-1h6.667c0.547 0 1 0.453 1 1s-0.453 1-1 1zM26 16h-20c-0.373 0-0.667-0.293-0.667-0.667v-2.667c0-0.373 0.293-0.667 0.667-0.667h20c0.373 0 0.667 0.293 0.667 0.667v2.667c0 0.373-0.293 0.667-0.667 0.667z"></path>
</symbol>
<symbol id="icon-stacks" viewBox="0 0 32 32">
<path d="M16 2.667c-7.36 0-13.334 5.974-13.334 13.334s5.973 13.334 13.334 13.334c7.36 0 13.333-5.974 13.333-13.334s-5.973-13.334-13.333-13.334zM22 19h-4.066l2.653 3.76c0.32 0.453 0.213 1.080-0.24 1.387-0.173 0.12-0.373 0.187-0.573 0.187-0.004 0-0.008 0-0.012 0-0.332 0-0.625-0.168-0.799-0.424l-0.002-0.003-3.067-4.346-3.066 4.346c-0.182 0.258-0.478 0.425-0.813 0.427h-0c-0.2 0-0.4-0.053-0.573-0.187-0.454-0.32-0.56-0.947-0.24-1.387l2.653-3.76h-3.826c-0.546 0-1-0.453-1-1s0.454-1 1-1h12c0.547 0 1 0.453 1 1s-0.48 1-1.026 1zM22 15h-12c-0.546 0-1-0.454-1-1s0.454-1 1-1h3.826l-2.653-3.76c-0.32-0.454-0.213-1.080 0.24-1.386 0.453-0.32 1.080-0.213 1.386 0.24l3.066 4.347 3.067-4.346c0.32-0.454 0.947-0.56 1.387-0.24 0.453 0.32 0.56 0.947 0.24 1.386l-2.654 3.76h4.067c0.547 0 1 0.454 1 1s-0.427 1-0.973 1z"></path>
</symbol>
<symbol id="icon-python" viewBox="0 0 32 32">
<path d="M20.026 2.974c-1.21-0.197-2.605-0.31-4.027-0.31s-2.816 0.113-4.177 0.33l0.15-0.020c-1.093 0.173-1.893 1.107-1.893 2.2v4.907h-4.907c-1.093 0-2.026 0.8-2.2 1.893-0.197 1.21-0.31 2.605-0.31 4.026s0.113 2.816 0.33 4.176l-0.020-0.15c0.173 1.093 1.107 1.893 2.2 1.893h2.24c0.002 0 0.005 0 0.007 0 0.364 0 0.66-0.296 0.66-0.66 0-0.002 0-0.005-0-0.007v0-2.294c0-2.733 2.226-4.96 4.96-4.96h5.92c0.533 0 0.96-0.427 0.96-0.96v-4.293c-0-0.002-0-0.004-0-0.007 0-0.364 0.296-0.66 0.66-0.66 0.002 0 0.005 0 0.007 0h0.666c0.002 0 0.005 0 0.007 0 0.364 0 0.66-0.295 0.66-0.66 0-0.002 0-0.005-0-0.007v0-2.24c0-1.093-0.8-2.027-1.893-2.2zM13.773 7.44c-0.546 0-1.066-0.52-1.066-1.067 0-0.56 0.52-1.080 1.066-1.080 0.267 0 0.56 0.12 0.747 0.306 0.2 0.186 0.333 0.494 0.333 0.774 0 0.546-0.52 1.066-1.080 1.066z"></path>
<path d="M29.026 11.973c-0.174-1.094-1.107-1.893-2.2-1.893h-4.24c-0.002-0-0.005-0-0.007-0-0.364 0-0.66 0.296-0.66 0.66 0 0.002 0 0.005 0 0.007v-0 2.293c0 1.627-1.32 2.96-2.96 2.96h-5.919c-1.64 0-2.96 1.32-2.96 2.96v7.867c0 1.093 0.8 2.027 1.893 2.2 1.21 0.197 2.605 0.31 4.027 0.31s2.816-0.113 4.177-0.33l-0.15 0.020c1.093-0.173 1.893-1.107 1.893-2.2v-4.907h4.907c1.093 0 2.026-0.8 2.2-1.893 0.197-1.21 0.31-2.605 0.31-4.027s-0.113-2.816-0.33-4.176l0.020 0.15zM18.227 26.706c-0.547 0-1.080-0.52-1.080-1.080s0.52-1.080 1.080-1.080c0.253 0 0.56 0.12 0.747 0.294 0.2 0.186 0.334 0.506 0.334 0.773-0.014 0.573-0.534 1.093-1.080 1.093z"></path>
</symbol>
<symbol id="icon-iost" viewBox="0 0 32 32">
<path d="M26.014 8.56l-8.667-5.093c-0.387-0.232-0.854-0.37-1.353-0.37s-0.966 0.138-1.365 0.377l0.012-0.007-8.666 5.093c-0.814 0.48-1.32 1.36-1.32 2.293v10.28c0.003 0.973 0.527 1.823 1.308 2.286l0.012 0.007 8.666 5.093c0.387 0.232 0.854 0.37 1.353 0.37s0.966-0.137 1.365-0.377l-0.012 0.007 8.667-5.093c0.813-0.48 1.32-1.36 1.32-2.293v-10.28c0-0.934-0.507-1.813-1.32-2.293zM23.186 20.854l-6.666 4c-0.16 0.093-0.334 0.146-0.52 0.146s-0.36-0.053-0.52-0.146l-6.666-4c-0.48-0.28-0.627-0.893-0.347-1.373s0.893-0.627 1.373-0.346l6.146 3.693 4.72-2.84-2.48-1.493-0.866 0.866c-0.2 0.2-0.454 0.294-0.706 0.294-0.001 0-0.003 0-0.004 0-0.275 0-0.524-0.112-0.703-0.293l-0-0c-0.179-0.182-0.29-0.431-0.29-0.707s0.111-0.525 0.29-0.707l0.507-0.506-2.4-1.44-0.694 0.694c-0.2 0.2-0.454 0.293-0.707 0.293-0.001 0-0.003 0-0.004 0-0.275 0-0.523-0.112-0.703-0.293l-0-0c-0.179-0.182-0.29-0.431-0.29-0.707s0.111-0.525 0.29-0.707l-0 0 0.347-0.347-3.48-2.094c-0.29-0.176-0.48-0.49-0.48-0.848 0-0.002 0-0.004 0-0.006v0c0-0.347 0.187-0.68 0.48-0.853l6.666-4c0.32-0.187 0.72-0.187 1.026 0l6.667 4c0.48 0.28 0.627 0.893 0.346 1.373-0.18 0.293-0.499 0.485-0.863 0.485-0.188 0-0.364-0.051-0.515-0.141l0.005 0.003-6.146-3.694-4.72 2.84 2.48 1.493 0.867-0.867c0.182-0.179 0.431-0.29 0.707-0.29s0.525 0.111 0.707 0.29l-0-0c0.179 0.182 0.29 0.431 0.29 0.707s-0.111 0.525-0.29 0.707l-0.506 0.506 2.4 1.44 0.693-0.693c0.182-0.179 0.431-0.29 0.707-0.29s0.525 0.111 0.707 0.29l-0-0c0.179 0.182 0.29 0.431 0.29 0.706s-0.111 0.525-0.29 0.707l0-0-0.346 0.347 3.48 2.093c0.306 0.187 0.48 0.507 0.48 0.854s-0.174 0.68-0.467 0.854z"></path>
</symbol>
<symbol id="icon-you-tube" viewBox="0 0 37 32">
<path d="M32.574 0.955c1.575 0.526 2.811 2.075 3.234 4.041 0.763 3.566 0.763 11.003 0.763 11.003s0 7.438-0.763 11.003c-0.421 1.966-1.659 3.515-3.234 4.041-2.853 0.955-14.288 0.955-14.288 0.955s-11.435 0-14.288-0.955c-1.575-0.526-2.811-2.075-3.234-4.041-0.763-3.566-0.763-11.003-0.763-11.003s0-7.438 0.763-11.003c0.421-1.966 1.659-3.515 3.237-4.041 2.85-0.955 14.286-0.955 14.286-0.955s11.435 0 14.288 0.955zM14.857 9.739v13.913l9.143-6.958-9.143-6.955z"></path>
</symbol>
<symbol id="icon-twitter" viewBox="0 0 37 32">
<path d="M17.758 8.512l0.080 1.385-1.321-0.169c-4.814-0.654-9.013-2.855-12.578-6.553l-1.744-1.838-0.45 1.355c-0.951 3.024-0.343 6.217 1.639 8.361 1.056 1.189 0.818 1.358-1.006 0.651-0.633-0.229-1.189-0.395-1.241-0.311-0.183 0.197 0.45 2.766 0.951 3.785 0.686 1.413 2.089 2.795 3.621 3.616l1.296 0.649-1.531 0.027c-1.481 0-1.534 0.027-1.376 0.622 0.528 1.835 2.615 3.785 4.942 4.633l1.639 0.594-1.429 0.903c-2.018 1.253-4.453 2.021-7.063 2.089l-0.018 0c-1.189 0.027-2.167 0.142-2.167 0.226 0 0.283 3.223 1.865 5.099 2.485 5.63 1.838 12.315 1.047 17.335-2.089 3.566-2.231 7.136-6.665 8.8-10.96 0.898-2.286 1.797-6.469 1.797-8.473 0-1.301 0.080-1.47 1.559-3.024 0.873-0.903 1.691-1.893 1.851-2.174 0.263-0.537 0.238-0.537-1.111-0.057-2.247 0.846-2.565 0.734-1.454-0.537 0.818-0.903 1.797-2.542 1.797-3.022 0-0.085-0.395 0.057-0.846 0.311-0.475 0.283-1.531 0.706-2.325 0.96l-1.426 0.48-1.296-0.933c-0.713-0.507-1.717-1.074-2.247-1.241-1.349-0.395-3.406-0.341-4.624 0.114-3.051 1.207-5.171 4.131-5.171 7.551 0 0.204 0.008 0.406 0.022 0.607l-0.002-0.027z"></path>
</symbol>
<symbol id="icon-instagram" viewBox="0 0 32 32">
<path d="M16 0c-4.342 0-4.888 0.020-6.594 0.096-1.706 0.080-2.868 0.348-3.886 0.744-1.109 0.424-2.055 1.052-2.833 1.845l-0.001 0.001c-0.793 0.78-1.421 1.725-1.828 2.78l-0.018 0.054c-0.396 1.016-0.666 2.18-0.744 3.88-0.076 1.71-0.096 2.254-0.096 6.602 0 4.344 0.020 4.888 0.096 6.594 0.080 1.704 0.348 2.866 0.744 3.884 0.41 1.052 0.956 1.944 1.846 2.834 0.888 0.89 1.78 1.438 2.832 1.846 1.020 0.396 2.18 0.666 3.884 0.744 1.708 0.076 2.252 0.096 6.598 0.096s4.888-0.020 6.596-0.096c1.702-0.080 2.868-0.348 3.886-0.744 1.108-0.424 2.053-1.052 2.831-1.845l0.001-0.001c0.89-0.89 1.436-1.782 1.846-2.834 0.394-1.018 0.664-2.18 0.744-3.884 0.076-1.706 0.096-2.25 0.096-6.596s-0.020-4.89-0.096-6.598c-0.080-1.702-0.35-2.866-0.744-3.882-0.425-1.109-1.053-2.054-1.845-2.833l-0.001-0.001c-0.779-0.794-1.725-1.422-2.78-1.828l-0.054-0.018c-1.020-0.396-2.184-0.666-3.886-0.744-1.708-0.076-2.25-0.096-6.598-0.096h0.006zM14.566 2.884h1.436c4.272 0 4.778 0.014 6.464 0.092 1.56 0.070 2.408 0.332 2.972 0.55 0.746 0.29 1.28 0.638 1.84 1.198s0.904 1.092 1.196 1.84c0.22 0.562 0.48 1.41 0.55 2.97 0.078 1.686 0.094 2.192 0.094 6.462s-0.016 4.778-0.094 6.464c-0.070 1.56-0.332 2.406-0.55 2.97-0.29 0.746-0.638 1.28-1.198 1.838-0.56 0.56-1.092 0.906-1.84 1.196-0.56 0.22-1.41 0.48-2.97 0.552-1.686 0.076-2.192 0.094-6.464 0.094s-4.78-0.018-6.466-0.094c-1.56-0.072-2.406-0.332-2.97-0.552-0.721-0.27-1.336-0.678-1.839-1.195l-0.001-0.001c-0.519-0.504-0.928-1.118-1.189-1.806l-0.011-0.034c-0.218-0.562-0.48-1.41-0.55-2.97-0.076-1.686-0.092-2.192-0.092-6.466 0-4.272 0.016-4.776 0.092-6.462 0.072-1.56 0.332-2.408 0.552-2.972 0.29-0.746 0.636-1.28 1.196-1.84s1.094-0.906 1.84-1.198c0.564-0.22 1.412-0.48 2.972-0.55 1.476-0.068 2.048-0.088 5.030-0.090v0.004zM24.542 5.54c-1.060 0-1.92 0.86-1.92 1.92s0.86 1.92 1.92 1.92v0c1.060 0 1.92-0.86 1.92-1.92s-0.86-1.92-1.92-1.92v0zM16.002 7.784c-0.038-0.001-0.083-0.001-0.128-0.001-4.539 0-8.218 3.679-8.218 8.218s3.679 8.218 8.218 8.218c0.045 0 0.090-0 0.135-0.001l-0.007 0c4.483-0.072 8.090-3.723 8.090-8.217s-3.607-8.145-8.083-8.217l-0.007-0zM16.002 10.666c2.946 0 5.334 2.388 5.334 5.334s-2.388 5.334-5.334 5.334v0c-2.946 0-5.334-2.388-5.334-5.334s2.388-5.334 5.334-5.334v0z"></path>
</symbol>
<symbol id="icon-dribbble" viewBox="0 0 34 32">
<path d="M32.044 16c-0 2.249-0.464 4.39-1.3 6.332l0.040-0.104c-1.259 2.908-3.252 5.298-5.749 7.004l-0.055 0.036c-0.781 0.533-1.675 1.026-2.615 1.432l-0.105 0.040c-1.84 0.795-3.983 1.257-6.234 1.257-3.344 0-6.45-1.021-9.022-2.767l0.056 0.036c-2.55-1.744-4.542-4.133-5.762-6.936l-0.040-0.104c-0.798-1.835-1.262-3.972-1.262-6.218 0-1.143 0.12-2.258 0.349-3.333l-0.019 0.104c0.455-2.172 1.293-4.092 2.447-5.778l-0.035 0.054c1.172-1.714 2.61-3.15 4.27-4.284l0.056-0.036c1.634-1.121 3.557-1.96 5.629-2.394l0.103-0.018c0.968-0.206 2.079-0.324 3.218-0.324 2.254 0 4.4 0.462 6.349 1.296l-0.105-0.040c3.852 1.661 6.861 4.667 8.486 8.412l0.040 0.104c0.797 1.829 1.26 3.959 1.26 6.198 0 0.011 0 0.021-0 0.032v-0.002zM10.184 3.64c-3.828 1.835-6.629 5.29-7.535 9.452l-0.017 0.090c0.36 0.004 6.062 0.076 12.632-1.668-1.746-3.063-3.426-5.634-5.24-8.1l0.16 0.228zM16.398 13.62c-7.046 2.104-13.806 1.954-14.048 1.944-0.004 0.146-0.012 0.29-0.012 0.436 0 3.51 1.326 6.71 3.506 9.13-0.004-0.008 3.74-6.64 11.124-9.026 0.18-0.060 0.36-0.112 0.54-0.164-0.344-0.776-0.72-1.554-1.11-2.32zM25.058 5.746c-2.39-2.116-5.552-3.408-9.015-3.408-0.007 0-0.015 0-0.022 0h0.001c-1.112 0-2.192 0.134-3.224 0.382 0.204 0.276 2.774 3.68 5.114 7.97 5.164-1.932 7.112-4.894 7.146-4.944zM18.44 18.206l-0.090 0.028c-8.074 2.81-10.71 8.474-10.74 8.536 2.294 1.803 5.223 2.892 8.407 2.892 0.002 0 0.003 0 0.005 0h-0c1.894 0 3.7-0.384 5.34-1.082-0.2-1.194-0.996-5.38-2.92-10.376zM23.668 27.332c3.072-2.089 5.228-5.329 5.851-9.086l0.011-0.080c-0.28-0.092-4.11-1.3-8.526-0.594 1.796 4.924 2.524 8.936 2.664 9.76zM18.966 12.726c0.32 0.619 0.724 1.504 1.099 2.405l0.105 0.285c4.7-0.592 9.332 0.402 9.53 0.444-0.028-3.258-1.198-6.238-3.13-8.562l0.018 0.022c-0.026 0.036-2.22 3.204-7.622 5.406z"></path>
</symbol>
</defs>
</svg>
