<svg aria-hidden="true" style="position: absolute; width: 0; height: 0; overflow: hidden;" version="1.1" xmlns="http://www.w3.org/2000/svg" xmlns:xlink="http://www.w3.org/1999/xlink">
<defs>
<symbol id="icon-burger-menu" viewBox="0 0 32 32">
<path d="M4.592 9.334c-0.326 0-0.592-0.598-0.592-1.334s0.266-1.334 0.592-1.334h9.482c0.327 0 0.592 0.598 0.592 1.334s-0.265 1.334-0.592 1.334h-9.482zM5.334 17.334c-0.737 0-1.334-0.597-1.334-1.334s0.597-1.334 1.334-1.334h21.333c0.737 0 1.334 0.597 1.334 1.334s-0.597 1.334-1.334 1.334h-21.333zM17.143 24c0 0.631 0.256 1.142 0.571 1.142h9.142c0.316 0 0.572-0.512 0.572-1.142 0-0.632-0.256-1.143-0.572-1.143h-9.142c-0.316 0-0.571 0.512-0.571 1.143z"></path>
</symbol>
<symbol id="icon-arrow" viewBox="0 0 48 32">
<path fill="#fefefe" style="fill: var(--color1, #fefefe)" d="M47.584 14.848l-14.86-14.54c-0.251-0.192-0.568-0.308-0.913-0.308-0.41 0-0.781 0.163-1.053 0.428l0-0c-0.268 0.263-0.433 0.628-0.433 1.032 0 0.339 0.116 0.65 0.312 0.897l-0.002-0.003 12.316 12.070h-41.46c-0.001 0-0.002 0-0.003 0-0.409 0-0.78 0.163-1.051 0.428l0-0c-0.267 0.262-0.433 0.627-0.433 1.031s0.166 0.769 0.433 1.031l0 0c0.28 0.274 0.658 0.428 1.052 0.428h41.44l-12.294 12.048c-0.324 0.25-0.54 0.627-0.572 1.055l-0 0.005c-0.002 0.028-0.003 0.061-0.003 0.095 0 0.403 0.167 0.767 0.435 1.027l0 0c0.269 0.265 0.639 0.429 1.047 0.429 0.035 0 0.069-0.001 0.103-0.004l-0.005 0c0.438-0.028 0.822-0.24 1.080-0.557l0.002-0.003 14.86-14.566c0.256-0.26 0.414-0.618 0.414-1.012s-0.158-0.752-0.414-1.012l0 0z"></path>
</symbol>
</defs>
</svg>
