<svg aria-hidden="true" style="position: absolute; width: 0; height: 0; overflow: hidden;" version="1.1" xmlns="http://www.w3.org/2000/svg" xmlns:xlink="http://www.w3.org/1999/xlink">
<defs>
<symbol id="icon-burger-menu" viewBox="0 0 32 32">
<path d="M4.592 9.334c-0.326 0-0.592-0.598-0.592-1.334s0.266-1.334 0.592-1.334h9.482c0.327 0 0.592 0.598 0.592 1.334s-0.265 1.334-0.592 1.334h-9.482zM5.334 17.334c-0.737 0-1.334-0.597-1.334-1.334s0.597-1.334 1.334-1.334h21.333c0.737 0 1.334 0.597 1.334 1.334s-0.597 1.334-1.334 1.334h-21.333zM17.143 24c0 0.631 0.256 1.142 0.571 1.142h9.142c0.316 0 0.572-0.512 0.572-1.142 0-0.632-0.256-1.143-0.572-1.143h-9.142c-0.316 0-0.571 0.512-0.571 1.143z"></path>
</symbol>
</defs>
</svg>
